<svg width="50" height="50" viewBox="0 0 50 50" fill="none" xmlns="http://www.w3.org/2000/svg">
<path fill-rule="evenodd" clip-rule="evenodd" d="M14.5833 6.16669C9.93494 6.16669 6.16667 9.93496 6.16667 14.5834V35.4167C6.16667 40.0651 9.93494 43.8334 14.5833 43.8334H35.4167C40.0651 43.8334 43.8333 40.0651 43.8333 35.4167V14.5834C43.8333 9.93496 40.0651 6.16669 35.4167 6.16669H14.5833ZM2.16667 14.5834C2.16667 7.72582 7.7258 2.16669 14.5833 2.16669H35.4167C42.2742 2.16669 47.8333 7.72582 47.8333 14.5834V35.4167C47.8333 42.2742 42.2742 47.8334 35.4167 47.8334H14.5833C7.7258 47.8334 2.16667 42.2742 2.16667 35.4167V14.5834Z" fill="black"/>
<path fill-rule="evenodd" clip-rule="evenodd" d="M26.0191 18.6451C24.7014 18.4497 23.3556 18.6747 22.1732 19.2883C20.9908 19.9018 20.0319 20.8726 19.433 22.0625C18.8341 23.2524 18.6256 24.6008 18.8372 25.9161C19.0489 27.2313 19.6698 28.4463 20.6118 29.3882C21.5538 30.3302 22.7687 30.9511 24.084 31.1628C25.3992 31.3744 26.7476 31.166 27.9375 30.567C29.1274 29.9681 30.0982 29.0093 30.7117 27.8268C31.3253 26.6444 31.5504 25.2986 31.355 23.9809C31.1556 22.6368 30.5293 21.3924 29.5685 20.4315C28.6076 19.4707 27.3633 18.8444 26.0191 18.6451ZM20.3309 15.7378C22.2601 14.7367 24.4559 14.3695 26.6059 14.6883C28.7989 15.0135 30.8292 16.0354 32.3969 17.6031C33.9646 19.1708 34.9865 21.2011 35.3117 23.3942C35.6305 25.5441 35.2633 27.7399 34.2622 29.6691C33.2612 31.5983 31.6773 33.1628 29.7359 34.14C27.7945 35.1172 25.5944 35.4573 23.4485 35.112C21.3026 34.7667 19.3202 33.7535 17.7834 32.2167C16.2465 30.6798 15.2333 28.6974 14.888 26.5515C14.5427 24.4057 14.8829 22.2055 15.86 20.2641C16.8372 18.3227 18.4017 16.7388 20.3309 15.7378Z" fill="black"/>
<path fill-rule="evenodd" clip-rule="evenodd" d="M34.4583 13.5417C34.4583 12.4371 35.3538 11.5417 36.4583 11.5417H36.4792C37.5837 11.5417 38.4792 12.4371 38.4792 13.5417C38.4792 14.6463 37.5837 15.5417 36.4792 15.5417H36.4583C35.3538 15.5417 34.4583 14.6463 34.4583 13.5417Z" fill="black"/>
</svg>
