<svg width="54" height="54" viewBox="0 0 54 54" fill="none" xmlns="http://www.w3.org/2000/svg">
<path d="M35.9991 18.0001C39.5795 18.0001 43.0133 19.4224 45.5451 21.9541C48.0768 24.4859 49.4991 27.9196 49.4991 31.5001V47.2501H40.4991V31.5001C40.4991 30.3066 40.025 29.162 39.1811 28.3181C38.3372 27.4742 37.1926 27.0001 35.9991 27.0001C34.8056 27.0001 33.661 27.4742 32.8171 28.3181C31.9732 29.162 31.4991 30.3066 31.4991 31.5001V47.2501H22.4991V31.5001C22.4991 27.9196 23.9214 24.4859 26.4532 21.9541C28.9849 19.4224 32.4187 18.0001 35.9991 18.0001Z" fill="black"/>
<path d="M13.5 20.25H4.5V47.25H13.5V20.25Z" fill="black"/>
<path d="M9 13.5005C11.4853 13.5005 13.5 11.4858 13.5 9.00055C13.5 6.51527 11.4853 4.50055 9 4.50055C6.51472 4.50055 4.5 6.51527 4.5 9.00055C4.5 11.4858 6.51472 13.5005 9 13.5005Z" fill="black"/>
</svg>
