<svg width="44" height="133" viewBox="0 0 44 133" fill="none" xmlns="http://www.w3.org/2000/svg">
<rect x="38.3636" y="70.4545" width="5.63636" height="5.63636" rx="2" fill="#FF0000"/>
<rect x="38.3636" y="98.6364" width="5.63636" height="5.63636" rx="2" fill="#FF0000"/>
<rect x="38.3636" y="84.5454" width="5.63636" height="5.63636" rx="2" fill="#FF0000"/>
<rect x="38.3636" y="112.727" width="5.63636" height="5.63636" rx="2" fill="#FF0000"/>
<rect x="38.3636" y="126.818" width="5.63636" height="5.63636" rx="2" fill="#FF0000"/>
<rect width="5.63636" height="5.63636" rx="2" transform="matrix(1 0 0 -1 -3.90912 62)" fill="#FF0000"/>
<rect width="5.63636" height="5.63636" rx="2" transform="matrix(1 0 0 -1 -3.90918 33.8182)" fill="#FF0000"/>
<rect width="5.63636" height="5.63636" rx="2" transform="matrix(1 0 0 -1 -3.90918 47.9091)" fill="#FF0000"/>
<rect width="5.63636" height="5.63636" rx="2" transform="matrix(1 0 0 -1 -3.90918 19.7273)" fill="#FF0000"/>
<rect width="5.63636" height="5.63636" rx="2" transform="matrix(1 0 0 -1 -3.90918 5.63641)" fill="#FF0000"/>
<rect x="24.2727" y="70.4545" width="5.63636" height="5.63636" rx="2" fill="#FF0000"/>
<rect x="24.2727" y="98.6364" width="5.63636" height="5.63636" rx="2" fill="#FF0000"/>
<rect x="24.2727" y="84.5454" width="5.63636" height="5.63636" rx="2" fill="#FF0000"/>
<rect x="24.2727" y="112.727" width="5.63636" height="5.63636" rx="2" fill="#FF0000"/>
<rect x="24.2727" y="126.818" width="5.63636" height="5.63636" rx="2" fill="#FF0000"/>
<rect x="10.1818" width="5.63636" height="5.63636" rx="2" fill="#0DB760"/>
<rect x="10.1819" y="28.1819" width="5.63636" height="5.63636" rx="2" fill="#0DB760"/>
<rect x="10.1819" y="14.0909" width="5.63636" height="5.63636" rx="2" fill="#0DB760"/>
<rect x="10.1819" y="42.2728" width="5.63636" height="5.63636" rx="2" fill="#0DB760"/>
<rect x="10.1819" y="56.3637" width="5.63636" height="5.63636" rx="2" fill="#0DB760"/>
<rect x="38.3636" width="5.63636" height="5.63636" rx="2" fill="#0DB760"/>
<rect x="38.3636" y="28.1819" width="5.63636" height="5.63636" rx="2" fill="#0DB760"/>
<rect x="38.3636" y="14.0909" width="5.63636" height="5.63636" rx="2" fill="#0DB760"/>
<rect x="38.3636" y="42.2728" width="5.63636" height="5.63636" rx="2" fill="#0DB760"/>
<rect x="38.3636" y="56.3637" width="5.63636" height="5.63636" rx="2" fill="#0DB760"/>
<rect width="5.63636" height="5.63636" rx="2" transform="matrix(1 0 0 -1 -3.90912 132.455)" fill="#0DB760"/>
<rect width="5.63636" height="5.63636" rx="2" transform="matrix(1 0 0 -1 -3.90918 104.273)" fill="#0DB760"/>
<rect width="5.63636" height="5.63636" rx="2" transform="matrix(1 0 0 -1 -3.90918 118.364)" fill="#0DB760"/>
<rect width="5.63636" height="5.63636" rx="2" transform="matrix(1 0 0 -1 -3.90918 90.1819)" fill="#0DB760"/>
<rect width="5.63636" height="5.63636" rx="2" transform="matrix(1 0 0 -1 -3.90918 76.0909)" fill="#0DB760"/>
<rect x="24.2727" width="5.63636" height="5.63636" rx="2" fill="#0DB760"/>
<rect x="24.2727" y="28.1819" width="5.63636" height="5.63636" rx="2" fill="#0DB760"/>
<rect x="24.2727" y="14.0909" width="5.63636" height="5.63636" rx="2" fill="#0DB760"/>
<rect x="24.2727" y="42.2728" width="5.63636" height="5.63636" rx="2" fill="#0DB760"/>
<rect x="24.2727" y="56.3637" width="5.63636" height="5.63636" rx="2" fill="#0DB760"/>
<rect x="10.1818" y="70.4545" width="5.63636" height="5.63636" rx="2" fill="#0DB760"/>
<rect x="10.1819" y="98.6364" width="5.63636" height="5.63636" rx="2" fill="#0DB760"/>
<rect x="10.1819" y="84.5454" width="5.63636" height="5.63636" rx="2" fill="#0DB760"/>
<rect x="10.1819" y="112.727" width="5.63636" height="5.63636" rx="2" fill="#0DB760"/>
<rect x="10.1819" y="126.818" width="5.63636" height="5.63636" rx="2" fill="#0DB760"/>
</svg>
