<svg width="44" height="133" viewBox="0 0 44 133" fill="none" xmlns="http://www.w3.org/2000/svg">
<rect width="5.63636" height="5.63636" rx="2" transform="matrix(-1 0 0 1 5.63635 70.4545)" fill="#FF0000"/>
<rect width="5.63636" height="5.63636" rx="2" transform="matrix(-1 0 0 1 5.63635 98.6364)" fill="#FF0000"/>
<rect width="5.63636" height="5.63636" rx="2" transform="matrix(-1 0 0 1 5.63635 84.5454)" fill="#FF0000"/>
<rect width="5.63636" height="5.63636" rx="2" transform="matrix(-1 0 0 1 5.63635 112.727)" fill="#FF0000"/>
<rect width="5.63636" height="5.63636" rx="2" transform="matrix(-1 0 0 1 5.63635 126.818)" fill="#FF0000"/>
<rect x="47.9091" y="62" width="5.63636" height="5.63636" rx="2" transform="rotate(180 47.9091 62)" fill="#FF0000"/>
<rect x="47.9092" y="33.8182" width="5.63636" height="5.63636" rx="2" transform="rotate(180 47.9092 33.8182)" fill="#FF0000"/>
<rect x="47.9092" y="47.9091" width="5.63636" height="5.63636" rx="2" transform="rotate(180 47.9092 47.9091)" fill="#FF0000"/>
<rect x="47.9092" y="19.7273" width="5.63636" height="5.63636" rx="2" transform="rotate(180 47.9092 19.7273)" fill="#FF0000"/>
<rect x="47.9092" y="5.63641" width="5.63636" height="5.63636" rx="2" transform="rotate(180 47.9092 5.63641)" fill="#FF0000"/>
<rect width="5.63636" height="5.63636" rx="2" transform="matrix(-1 0 0 1 19.7273 70.4545)" fill="#FF0000"/>
<rect width="5.63636" height="5.63636" rx="2" transform="matrix(-1 0 0 1 19.7273 98.6364)" fill="#FF0000"/>
<rect width="5.63636" height="5.63636" rx="2" transform="matrix(-1 0 0 1 19.7273 84.5454)" fill="#FF0000"/>
<rect width="5.63636" height="5.63636" rx="2" transform="matrix(-1 0 0 1 19.7273 112.727)" fill="#FF0000"/>
<rect width="5.63636" height="5.63636" rx="2" transform="matrix(-1 0 0 1 19.7273 126.818)" fill="#FF0000"/>
<rect width="5.63636" height="5.63636" rx="2" transform="matrix(-1 0 0 1 33.8182 0)" fill="#0DB760"/>
<rect width="5.63636" height="5.63636" rx="2" transform="matrix(-1 0 0 1 33.8181 28.1819)" fill="#0DB760"/>
<rect width="5.63636" height="5.63636" rx="2" transform="matrix(-1 0 0 1 33.8181 14.0909)" fill="#0DB760"/>
<rect width="5.63636" height="5.63636" rx="2" transform="matrix(-1 0 0 1 33.8181 42.2728)" fill="#0DB760"/>
<rect width="5.63636" height="5.63636" rx="2" transform="matrix(-1 0 0 1 33.8181 56.3637)" fill="#0DB760"/>
<rect width="5.63636" height="5.63636" rx="2" transform="matrix(-1 0 0 1 5.63635 0)" fill="#0DB760"/>
<rect width="5.63636" height="5.63636" rx="2" transform="matrix(-1 0 0 1 5.63635 28.1819)" fill="#0DB760"/>
<rect width="5.63636" height="5.63636" rx="2" transform="matrix(-1 0 0 1 5.63635 14.0909)" fill="#0DB760"/>
<rect width="5.63636" height="5.63636" rx="2" transform="matrix(-1 0 0 1 5.63635 42.2728)" fill="#0DB760"/>
<rect width="5.63636" height="5.63636" rx="2" transform="matrix(-1 0 0 1 5.63635 56.3637)" fill="#0DB760"/>
<rect x="47.9091" y="132.455" width="5.63636" height="5.63636" rx="2" transform="rotate(180 47.9091 132.455)" fill="#0DB760"/>
<rect x="47.9092" y="104.273" width="5.63636" height="5.63636" rx="2" transform="rotate(180 47.9092 104.273)" fill="#0DB760"/>
<rect x="47.9092" y="118.364" width="5.63636" height="5.63636" rx="2" transform="rotate(180 47.9092 118.364)" fill="#0DB760"/>
<rect x="47.9092" y="90.1818" width="5.63636" height="5.63636" rx="2" transform="rotate(180 47.9092 90.1818)" fill="#0DB760"/>
<rect x="47.9092" y="76.0909" width="5.63636" height="5.63636" rx="2" transform="rotate(180 47.9092 76.0909)" fill="#0DB760"/>
<rect width="5.63636" height="5.63636" rx="2" transform="matrix(-1 0 0 1 19.7273 0)" fill="#0DB760"/>
<rect width="5.63636" height="5.63636" rx="2" transform="matrix(-1 0 0 1 19.7273 28.1819)" fill="#0DB760"/>
<rect width="5.63636" height="5.63636" rx="2" transform="matrix(-1 0 0 1 19.7273 14.0909)" fill="#0DB760"/>
<rect width="5.63636" height="5.63636" rx="2" transform="matrix(-1 0 0 1 19.7273 42.2728)" fill="#0DB760"/>
<rect width="5.63636" height="5.63636" rx="2" transform="matrix(-1 0 0 1 19.7273 56.3637)" fill="#0DB760"/>
<rect width="5.63636" height="5.63636" rx="2" transform="matrix(-1 0 0 1 33.8182 70.4545)" fill="#0DB760"/>
<rect width="5.63636" height="5.63636" rx="2" transform="matrix(-1 0 0 1 33.8181 98.6364)" fill="#0DB760"/>
<rect width="5.63636" height="5.63636" rx="2" transform="matrix(-1 0 0 1 33.8181 84.5454)" fill="#0DB760"/>
<rect width="5.63636" height="5.63636" rx="2" transform="matrix(-1 0 0 1 33.8181 112.727)" fill="#0DB760"/>
<rect width="5.63636" height="5.63636" rx="2" transform="matrix(-1 0 0 1 33.8181 126.818)" fill="#0DB760"/>
</svg>
