<svg width="54" height="42" viewBox="0 0 54 42" fill="none" xmlns="http://www.w3.org/2000/svg">
<g clip-path="url(#clip0_205_676)">
<path fill-rule="evenodd" clip-rule="evenodd" d="M-1.75 21C-1.75 20.0335 -0.966498 19.25 0 19.25L48.7742 19.25C49.7407 19.25 50.5242 20.0335 50.5242 21C50.5242 21.9665 49.7407 22.75 48.7742 22.75L-5.32997e-07 22.75C-0.966499 22.75 -1.75 21.9665 -1.75 21Z" fill="black"/>
<path fill-rule="evenodd" clip-rule="evenodd" d="M38.8299 7.50971C39.5149 6.82787 40.623 6.83043 41.3048 7.51542L53.4984 19.7654C54.178 20.4482 54.178 21.5518 53.4984 22.2346L41.3048 34.4846C40.623 35.1696 39.5149 35.1721 38.8299 34.4903C38.1449 33.8085 38.1424 32.7004 38.8242 32.0154L49.7889 21L38.8242 9.98458C38.1424 9.29958 38.1449 8.19155 38.8299 7.50971Z" fill="black"/>
</g>
<defs>
<clipPath id="clip0_205_676">
<rect width="54" height="42" fill="white"/>
</clipPath>
</defs>
</svg>
