<svg width="54" height="54" viewBox="0 0 54 54" fill="none" xmlns="http://www.w3.org/2000/svg">
<path fill-rule="evenodd" clip-rule="evenodd" d="M27 18.625C25.6739 18.625 24.4021 19.1518 23.4645 20.0895C22.5268 21.0271 22 22.2989 22 23.625C22 24.9511 22.5268 26.2229 23.4645 27.1605C24.4021 28.0982 25.6739 28.625 27 28.625C28.3261 28.625 29.5979 28.0982 30.5355 27.1605C31.4732 26.2229 32 24.9511 32 23.625C32 22.2989 31.4732 21.0271 30.5355 20.0895C29.5979 19.1518 28.3261 18.625 27 18.625ZM20.9896 17.6146C22.5837 16.0205 24.7457 15.125 27 15.125C29.2543 15.125 31.4163 16.0205 33.0104 17.6146C34.6045 19.2087 35.5 21.3707 35.5 23.625C35.5 25.8793 34.6045 28.0413 33.0104 29.6354C31.4163 31.2295 29.2543 32.125 27 32.125C24.7457 32.125 22.5837 31.2295 20.9896 29.6354C19.3955 28.0413 18.5 25.8793 18.5 23.625C18.5 21.3707 19.3955 19.2087 20.9896 17.6146Z" fill="black"/>
<path fill-rule="evenodd" clip-rule="evenodd" d="M27 8.5C22.9886 8.5 19.1415 10.0935 16.305 12.93C13.4685 15.7665 11.875 19.6136 11.875 23.625C11.875 31.0179 15.757 36.9303 19.8144 41.0846C21.8321 43.1504 23.8548 44.7403 25.373 45.8129C26.0251 46.2735 26.5812 46.6367 27 46.8992C27.4188 46.6367 27.9749 46.2735 28.627 45.8129C30.1452 44.7403 32.1679 43.1504 34.1856 41.0846C38.243 36.9303 42.125 31.0179 42.125 23.625C42.125 19.6136 40.5315 15.7665 37.695 12.93C34.8585 10.0935 31.0114 8.5 27 8.5ZM27 48.9375C26.1593 50.4723 26.1587 50.472 26.158 50.4716L26.1518 50.4682L26.1382 50.4607L26.0929 50.4354C26.0549 50.4139 26.0013 50.3834 25.9331 50.3439C25.7967 50.2649 25.602 50.1498 25.3573 49.9991C24.8682 49.6979 24.1779 49.2539 23.3535 48.6715C21.7077 47.5088 19.5116 45.7837 17.3106 43.5301C12.9305 39.0455 8.375 32.3016 8.375 23.625C8.375 18.6853 10.3373 13.948 13.8301 10.4551C17.323 6.96227 22.0603 5 27 5C31.9397 5 36.677 6.96227 40.1699 10.4551C43.6627 13.948 45.625 18.6853 45.625 23.625C45.625 32.3016 41.0695 39.0455 36.6894 43.5301C34.4884 45.7837 32.2923 47.5088 30.6465 48.6715C29.8221 49.2539 29.1318 49.6979 28.6427 49.9991C28.398 50.1498 28.2033 50.2649 28.0669 50.3439C27.9987 50.3834 27.9451 50.4139 27.9071 50.4354L27.8618 50.4607L27.8482 50.4682L27.842 50.4716C27.8413 50.472 27.8407 50.4723 27 48.9375ZM27 48.9375L27.8407 50.4723C27.3169 50.7592 26.6831 50.7592 26.1593 50.4723L27 48.9375Z" fill="black"/>
</svg>
