<svg width="48" height="38" viewBox="0 0 48 38" fill="none" xmlns="http://www.w3.org/2000/svg">
<path fill-rule="evenodd" clip-rule="evenodd" d="M2.30783 2.37034C3.58543 1.09274 5.31821 0.375 7.125 0.375H40.875C42.6818 0.375 44.4146 1.09274 45.6922 2.37034C46.9698 3.64793 47.6875 5.38071 47.6875 7.1875V7.73406C47.6875 7.73412 47.6875 7.73399 47.6875 7.73406C47.6875 7.7345 47.6875 7.73513 47.6875 7.73558V30.8125C47.6875 32.6193 46.9698 34.3521 45.6922 35.6297C44.4146 36.9073 42.6818 37.625 40.875 37.625H7.125C5.31821 37.625 3.58543 36.9073 2.30783 35.6297C1.03024 34.3521 0.3125 32.6193 0.3125 30.8125V7.73782C0.3125 7.73738 0.3125 7.73694 0.3125 7.7365C0.3125 7.73643 0.3125 7.73656 0.3125 7.7365V7.1875C0.3125 5.38071 1.03024 3.64793 2.30783 2.37034ZM3.8125 7.1875C3.8125 6.30897 4.16149 5.46642 4.78271 4.84521C5.40392 4.22399 6.24647 3.875 7.125 3.875H40.875C41.7535 3.875 42.5961 4.22399 43.2173 4.84521C43.8385 5.46642 44.1875 6.30897 44.1875 7.1875V7.73425C44.1875 7.73401 44.1875 7.73449 44.1875 7.73425C44.1874 8.29955 44.0427 8.85635 43.7671 9.34991C43.4915 9.84345 43.0941 10.2582 42.6129 10.5548C42.6131 10.5547 42.6127 10.5549 42.6129 10.5548L25.7379 20.9386C25.2156 21.2603 24.6135 21.4311 24 21.4311C23.3865 21.4311 22.7851 21.2607 22.2628 20.939L5.38778 10.5575C4.90661 10.2609 4.50851 9.84565 4.23292 9.35216C3.95729 8.8586 3.81256 8.30272 3.8125 7.73743C3.8125 7.73767 3.8125 7.73718 3.8125 7.73743V7.1875ZM3.8125 13.6977V30.8125C3.8125 31.691 4.16149 32.5336 4.78271 33.1548C5.40392 33.776 6.24647 34.125 7.125 34.125H40.875C41.7535 34.125 42.5961 33.776 43.2173 33.1548C43.8385 32.5336 44.1875 31.691 44.1875 30.8125V13.6954L27.5728 23.919C26.4985 24.5807 25.2617 24.9311 24 24.9311C22.7383 24.9311 21.5015 24.5807 20.4272 23.919L3.8125 13.6977Z" fill="black"/>
</svg>
