<svg width="26" height="26" viewBox="0 0 26 26" fill="none" xmlns="http://www.w3.org/2000/svg">
<path d="M1.86351 1.86351C2.49645 1.23058 3.35489 0.875 4.25 0.875H5.85067C6.31047 0.875153 6.75729 1.02895 7.11968 1.31195C7.48207 1.59496 7.7395 1.99094 7.85108 2.437L9.14134 7.59687C9.34288 8.4012 9.04293 9.25014 8.37699 9.74792L8.37601 9.74866L6.86891 10.8793C6.67124 11.0275 6.61471 11.256 6.6795 11.4324C7.34418 13.2403 8.39388 14.8821 9.75591 16.2441C11.118 17.6062 12.7598 18.6559 14.5678 19.3206C14.7441 19.3852 14.9725 19.3288 15.1207 19.1312L16.2519 17.6232C16.7489 16.9599 17.5962 16.6569 18.4027 16.8586L23.5626 18.1488C24.4813 18.3782 25.125 19.2036 25.125 20.1493V21.75C25.125 22.6451 24.7694 23.5035 24.1365 24.1365C23.5035 24.7694 22.6451 25.125 21.75 25.125H19.125C9.04612 25.125 0.875 16.9539 0.875 6.875V4.25C0.875 3.35489 1.23058 2.49645 1.86351 1.86351Z" fill="white"/>
</svg>
