<svg width="46" height="38" viewBox="0 0 46 38" fill="none" xmlns="http://www.w3.org/2000/svg">
<path d="M45.9167 0.250014C43.9216 1.65726 41.7127 2.73358 39.375 3.43751C38.1203 1.99483 36.4528 0.972289 34.598 0.508194C32.7432 0.0440984 30.7906 0.160839 29.0043 0.842625C27.2181 1.52441 25.6843 2.73835 24.6104 4.32026C23.5365 5.90216 22.9744 7.77571 23 9.68751V11.7708C19.3388 11.8658 15.711 11.0538 12.4396 9.40719C9.16821 7.7606 6.35483 5.3305 4.25 2.33335C4.25 2.33335 -4.08333 21.0833 14.6667 29.4167C10.3761 32.3291 5.26491 33.7894 0.0833321 33.5833C18.8333 44 41.75 33.5833 41.75 9.62501C41.7481 9.04471 41.6923 8.46584 41.5833 7.89585C43.7096 5.79896 45.2101 3.1515 45.9167 0.250014Z" fill="black"/>
</svg>
