<svg width="44" height="133" viewBox="0 0 44 133" fill="none" xmlns="http://www.w3.org/2000/svg">
<rect x="29.9091" y="62.5454" width="5.63636" height="5.63636" rx="2" transform="rotate(180 29.9091 62.5454)" fill="#FF0000"/>
<rect x="29.9092" y="34.3636" width="5.63636" height="5.63636" rx="2" transform="rotate(180 29.9092 34.3636)" fill="#FF0000"/>
<rect x="29.9092" y="48.4546" width="5.63636" height="5.63636" rx="2" transform="rotate(180 29.9092 48.4546)" fill="#FF0000"/>
<rect x="29.9092" y="20.2727" width="5.63636" height="5.63636" rx="2" transform="rotate(180 29.9092 20.2727)" fill="#FF0000"/>
<rect x="29.9092" y="6.18182" width="5.63636" height="5.63636" rx="2" transform="rotate(180 29.9092 6.18182)" fill="#FF0000"/>
<rect width="5.63636" height="5.63636" rx="2" transform="matrix(-1 0 0 1 1.72729 70.9999)" fill="#FF0000"/>
<rect width="5.63636" height="5.63636" rx="2" transform="matrix(-1 0 0 1 1.72729 99.1818)" fill="#FF0000"/>
<rect width="5.63636" height="5.63636" rx="2" transform="matrix(-1 0 0 1 1.72729 85.0909)" fill="#FF0000"/>
<rect width="5.63636" height="5.63636" rx="2" transform="matrix(-1 0 0 1 1.72729 113.273)" fill="#FF0000"/>
<rect width="5.63636" height="5.63636" rx="2" transform="matrix(-1 0 0 1 1.72729 127.364)" fill="#FF0000"/>
<rect x="44" y="62.5454" width="5.63636" height="5.63636" rx="2" transform="rotate(180 44 62.5454)" fill="#FF0000"/>
<rect x="44" y="34.3636" width="5.63636" height="5.63636" rx="2" transform="rotate(180 44 34.3636)" fill="#FF0000"/>
<rect x="44" y="48.4546" width="5.63636" height="5.63636" rx="2" transform="rotate(180 44 48.4546)" fill="#FF0000"/>
<rect x="44" y="20.2727" width="5.63636" height="5.63636" rx="2" transform="rotate(180 44 20.2727)" fill="#FF0000"/>
<rect x="44" y="6.18182" width="5.63636" height="5.63636" rx="2" transform="rotate(180 44 6.18182)" fill="#FF0000"/>
<rect width="5.63636" height="5.63636" rx="2" transform="matrix(-1 0 0 1 15.8182 0.54541)" fill="#0DB760"/>
<rect width="5.63636" height="5.63636" rx="2" transform="matrix(-1 0 0 1 15.8181 28.7273)" fill="#0DB760"/>
<rect width="5.63636" height="5.63636" rx="2" transform="matrix(-1 0 0 1 15.8181 14.6364)" fill="#0DB760"/>
<rect width="5.63636" height="5.63636" rx="2" transform="matrix(-1 0 0 1 15.8181 42.8182)" fill="#0DB760"/>
<rect width="5.63636" height="5.63636" rx="2" transform="matrix(-1 0 0 1 15.8181 56.9091)" fill="#0DB760"/>
<rect x="29.9091" y="133" width="5.63636" height="5.63636" rx="2" transform="rotate(180 29.9091 133)" fill="#0DB760"/>
<rect x="29.9092" y="104.818" width="5.63636" height="5.63636" rx="2" transform="rotate(180 29.9092 104.818)" fill="#0DB760"/>
<rect x="29.9092" y="118.909" width="5.63636" height="5.63636" rx="2" transform="rotate(180 29.9092 118.909)" fill="#0DB760"/>
<rect x="29.9092" y="90.7272" width="5.63636" height="5.63636" rx="2" transform="rotate(180 29.9092 90.7272)" fill="#0DB760"/>
<rect x="29.9092" y="76.6363" width="5.63636" height="5.63636" rx="2" transform="rotate(180 29.9092 76.6363)" fill="#0DB760"/>
<rect width="5.63636" height="5.63636" rx="2" transform="matrix(-1 0 0 1 1.72729 0.54541)" fill="#0DB760"/>
<rect width="5.63636" height="5.63636" rx="2" transform="matrix(-1 0 0 1 1.72729 28.7273)" fill="#0DB760"/>
<rect width="5.63636" height="5.63636" rx="2" transform="matrix(-1 0 0 1 1.72729 14.6364)" fill="#0DB760"/>
<rect width="5.63636" height="5.63636" rx="2" transform="matrix(-1 0 0 1 1.72729 42.8182)" fill="#0DB760"/>
<rect width="5.63636" height="5.63636" rx="2" transform="matrix(-1 0 0 1 1.72729 56.9091)" fill="#0DB760"/>
<rect x="44" y="133" width="5.63636" height="5.63636" rx="2" transform="rotate(180 44 133)" fill="#0DB760"/>
<rect x="44" y="104.818" width="5.63636" height="5.63636" rx="2" transform="rotate(180 44 104.818)" fill="#0DB760"/>
<rect x="44" y="118.909" width="5.63636" height="5.63636" rx="2" transform="rotate(180 44 118.909)" fill="#0DB760"/>
<rect x="44" y="90.7272" width="5.63636" height="5.63636" rx="2" transform="rotate(180 44 90.7272)" fill="#0DB760"/>
<rect x="44" y="76.6363" width="5.63636" height="5.63636" rx="2" transform="rotate(180 44 76.6363)" fill="#0DB760"/>
<rect width="5.63636" height="5.63636" rx="2" transform="matrix(-1 0 0 1 15.8182 70.9999)" fill="#0DB760"/>
<rect width="5.63636" height="5.63636" rx="2" transform="matrix(-1 0 0 1 15.8181 99.1818)" fill="#0DB760"/>
<rect width="5.63636" height="5.63636" rx="2" transform="matrix(-1 0 0 1 15.8181 85.0909)" fill="#0DB760"/>
<rect width="5.63636" height="5.63636" rx="2" transform="matrix(-1 0 0 1 15.8181 113.273)" fill="#0DB760"/>
<rect width="5.63636" height="5.63636" rx="2" transform="matrix(-1 0 0 1 15.8181 127.364)" fill="#0DB760"/>
</svg>
